<svg id="Layer_1" data-name="Layer 1" xmlns="http://www.w3.org/2000/svg" width="300" height="300" viewBox="0 0 300 300">
  <title>unicorn</title>
  <path d="M158.62,93.63L116.24,76s8.4,29.18,42.78,22.39Z" style="fill: #e291be"/>
  <polygon points="140.35 106.87 20.96 39.27 125.56 117.51 140.35 106.87" style="fill: #e291be"/>
  <path d="M80.65,157.49s-7.26-2.33-9.85,3.63c-1,2.07,2.33,7,4.93,7.78" style="fill: #e291be"/>
  <path d="M260,202.77q2.34-3.62,4.41-7.42L249,189.6l16.25,4q1.31-2.49,2.5-5l-18.76-7,19.74,4.88,0.54-1.22c-0.22-1.74-.44-3.49-0.7-5.24L246,171.49,246,171l22.12,5.47q-0.38-2.39-.78-4.76l-22-6.2v-0.09L266.84,169c-0.34-1.91-.7-3.79-1.06-5.63l-21.16-2.79v0l20.62,0.09c-0.44-2.17-.88-4.26-1.32-6.25l-17.66-.79,17.17-1.41c-0.32-1.39-.63-2.72-0.93-4l-20.7-1.72-0.12-.51,20.11-.68c-0.42-1.65-.81-3.15-1.17-4.44l-20.28,0-0.05-.19,19.67-2.14a26.93,26.93,0,0,0-.94-2.72q-0.49-1.25-1-2.46l-19.09,2.78-0.07-.22,18.13-5q-1.26-3-2.55-5.76l-17.49,4.12,16.53-6.19q-1.14-2.41-2.3-4.7l-17,5.07-0.06-.13,16-6.9q-1.1-2.1-2.22-4.1l-15.87,6.23,15-7.82q-1.33-2.32-2.68-4.5l-14.52,8.27,0-.09,13.38-10.06q-1.76-2.73-3.54-5.23l-13.24,9.14,12-10.8q-1.61-2.18-3.23-4.18l-13,9.6L222,102.7l11.81-11q-1.53-1.82-3.07-3.48L218.63,98.79l-0.06-.07L229.5,86.84q-1.87-1.95-3.75-3.68l-10.52,12.3L215,95.29l9-13.69q-2.44-2.14-4.89-4L209.57,91,209.49,91l7.87-14.6q-1.81-1.27-3.61-2.38l-8.61,14.37-0.21-.11,6.94-15.38q-2.05-1.17-4.09-2.15l-7.56,15.39-0.08,0L206,69.88q-2.48-1.11-4.92-2l-5.39,16.68-0.19-.05,3.26-17.38a61.09,61.09,0,0,0-6.06-1.52l-4,17.42,1.77-17.81q-2.63-.42-5.17-0.6L183.9,82.4l-0.67-17.86c-1.58-.06-3.14-0.07-4.65,0l0.08,16.86L176.77,64.6c-1.8.11-3.54,0.29-5.22,0.52l2.64,17.65-4.89-17.3c-2.18.38-4.24,0.84-6.16,1.34L167,83l-5.89-15.57A68.15,68.15,0,0,0,147.59,73c0,3,7.3,10,12.9,14.92-29.85,11.8-82.42,44.36-87.66,84.63-0.4.8,1.2,24.39,6.8,21.59,2.68-2.3,2.43-9.34,2-12.75,0.81,2,5.2,9.22,11.54,7.55,4.36-3.17-3.08-8.71-6.32-10.35C90.43,179.79,213.71,206.43,209,136c0,0.8,10.56,23.31-29.42,47.29-31.1,13.79-45.18,44.93-52.07,70.34a120.16,120.16,0,0,0,122.19-37.19c-0.15-4.9-.38-9.57-0.65-13.93C252.6,202.73,256.48,202.78,260,202.77ZM133.52,136.39a5.6,5.6,0,0,0-5.6,5.6c0,0.07,0,.14,0,0.21a5.59,5.59,0,1,1,10.18-3.41A5.59,5.59,0,0,0,133.52,136.39Z" style="fill: #e291be"/>
  <circle cx="159.02" cy="137.81" r="120.02" style="fill: none;stroke: #e08fbd;stroke-miterlimit: 10;stroke-width: 6px"/>
</svg>
